<svg width="800" height="600" xmlns="http://www.w3.org/2000/svg">
  <defs>
    <style>
      .title { font-family: Arial, sans-serif; font-size: 18px; font-weight: bold; fill: #2c3e50; }
      .subtitle { font-family: Arial, sans-serif; font-size: 14px; font-weight: bold; fill: #34495e; }
      .text { font-family: Arial, sans-serif; font-size: 12px; fill: #2c3e50; }
      .box { fill: #ecf0f1; stroke: #34495e; stroke-width: 2; }
      .decision { fill: #f39c12; stroke: #e67e22; stroke-width: 2; }
      .process { fill: #3498db; stroke: #2980b9; stroke-width: 2; }
      .result-success { fill: #2ecc71; stroke: #27ae60; stroke-width: 2; }
      .result-skip { fill: #e74c3c; stroke: #c0392b; stroke-width: 2; }
      .arrow { stroke: #34495e; stroke-width: 2; fill: none; marker-end: url(#arrowhead); }
      .problem { fill: #ff6b6b; stroke: #ee5a52; stroke-width: 2; }
    </style>
    <marker id="arrowhead" markerWidth="10" markerHeight="7" refX="9" refY="3.5" orient="auto">
      <polygon points="0 0, 10 3.5, 0 7" fill="#34495e" />
    </marker>
  </defs>
  
  <!-- 标题 -->
  <text x="400" y="25" text-anchor="middle" class="title">工作流跳过逻辑分析 - Terminal#623-923 问题诊断</text>
  
  <!-- 图片合成工作流 -->
  <text x="200" y="55" text-anchor="middle" class="subtitle">图片合成工作流</text>
  
  <!-- 开始 -->
  <rect x="150" y="70" width="100" height="40" rx="5" class="box"/>
  <text x="200" y="95" text-anchor="middle" class="text">检查状态列(D列)</text>
  
  <!-- 判断条件 -->
  <polygon points="200,130 250,150 200,170 150,150" class="decision"/>
  <text x="200" y="155" text-anchor="middle" class="text">status == '否'?</text>
  
  <!-- 实际情况说明 -->
  <rect x="280" y="130" width="180" height="40" rx="5" class="problem"/>
  <text x="370" y="145" text-anchor="middle" class="text">❌ 实际情况:</text>
  <text x="370" y="160" text-anchor="middle" class="text">状态列存储的是图片对象</text>
  
  <!-- 结果 -->
  <rect x="100" y="200" width="60" height="30" rx="5" class="result-skip"/>
  <text x="130" y="220" text-anchor="middle" class="text">跳过</text>
  
  <rect x="240" y="200" width="60" height="30" rx="5" class="result-success"/>
  <text x="270" y="220" text-anchor="middle" class="text">处理</text>
  
  <!-- 箭头 -->
  <line x1="200" y1="110" x2="200" y2="130" class="arrow"/>
  <line x1="175" y1="170" x2="130" y2="200" class="arrow"/>
  <line x1="225" y1="170" x2="270" y2="200" class="arrow"/>
  <line x1="250" y1="150" x2="280" y2="150" class="arrow"/>
  
  <!-- 标签 -->
  <text x="150" y="190" text-anchor="middle" class="text">否</text>
  <text x="250" y="190" text-anchor="middle" class="text">是</text>
  
  <!-- 图生视频工作流 -->
  <text x="200" y="275" text-anchor="middle" class="subtitle">图生视频工作流</text>
  
  <!-- 第一个判断 -->
  <rect x="120" y="290" width="160" height="40" rx="5" class="box"/>
  <text x="200" y="315" text-anchor="middle" class="text">视频工作流启用?</text>
  
  <!-- 配置说明 -->
  <rect x="320" y="290" width="180" height="40" rx="5" class="problem"/>
  <text x="410" y="305" text-anchor="middle" class="text">❌ 当前配置:</text>
  <text x="410" y="320" text-anchor="middle" class="text">video_workflow_enabled = False</text>
  
  <!-- 第二个判断 -->
  <polygon points="200,360 250,380 200,400 150,380" class="decision"/>
  <text x="200" y="385" text-anchor="middle" class="text">video_status == '否'?</text>
  
  <!-- 第三个判断 -->
  <polygon points="200,430 250,450 200,470 150,450" class="decision"/>
  <text x="200" y="455" text-anchor="middle" class="text">有合成图片?</text>
  
  <!-- 最终结果 -->
  <rect x="100" y="500" width="60" height="30" rx="5" class="result-skip"/>
  <text x="130" y="520" text-anchor="middle" class="text">跳过</text>
  
  <rect x="240" y="500" width="60" height="30" rx="5" class="result-success"/>
  <text x="270" y="520" text-anchor="middle" class="text">处理</text>
  
  <!-- 视频工作流箭头 -->
  <line x1="200" y1="330" x2="200" y2="360" class="arrow"/>
  <line x1="200" y1="400" x2="200" y2="430" class="arrow"/>
  <line x1="175" y1="470" x2="130" y2="500" class="arrow"/>
  <line x1="225" y1="470" x2="270" y2="500" class="arrow"/>
  <line x1="280" y1="310" x2="320" y2="310" class="arrow"/>
  
  <!-- 特定行分析 -->
  <text x="600" y="55" text-anchor="middle" class="subtitle">特定行分析结果</text>
  
  <!-- 第67行 -->
  <rect x="520" y="70" width="160" height="60" rx="5" class="box"/>
  <text x="600" y="85" text-anchor="middle" class="text">第67行</text>
  <text x="600" y="100" text-anchor="middle" class="text">状态列: 图片对象</text>
  <text x="600" y="115" text-anchor="middle" class="text">图片合成: ❌ 跳过</text>
  <text x="600" y="125" text-anchor="middle" class="text">图生视频: ❌ 跳过</text>
  
  <!-- 第73行 -->
  <rect x="520" y="140" width="160" height="60" rx="5" class="box"/>
  <text x="600" y="155" text-anchor="middle" class="text">第73行</text>
  <text x="600" y="170" text-anchor="middle" class="text">状态列: 图片对象</text>
  <text x="600" y="185" text-anchor="middle" class="text">图片合成: ❌ 跳过</text>
  <text x="600" y="195" text-anchor="middle" class="text">图生视频: ❌ 跳过</text>
  
  <!-- 第74行 -->
  <rect x="520" y="210" width="160" height="60" rx="5" class="box"/>
  <text x="600" y="225" text-anchor="middle" class="text">第74行</text>
  <text x="600" y="240" text-anchor="middle" class="text">状态列: 图片对象</text>
  <text x="600" y="255" text-anchor="middle" class="text">图片合成: ❌ 跳过</text>
  <text x="600" y="265" text-anchor="middle" class="text">图生视频: ❌ 跳过</text>
  
  <!-- 解决方案 -->
  <text x="600" y="300" text-anchor="middle" class="subtitle">解决方案</text>
  
  <rect x="520" y="315" width="160" height="100" rx="5" class="result-success"/>
  <text x="600" y="330" text-anchor="middle" class="text">1. 修改判断逻辑</text>
  <text x="600" y="345" text-anchor="middle" class="text">适配图片对象格式</text>
  <text x="600" y="365" text-anchor="middle" class="text">2. 启用视频工作流</text>
  <text x="600" y="380" text-anchor="middle" class="text">video_workflow_enabled = True</text>
  <text x="600" y="400" text-anchor="middle" class="text">3. 检查数据格式</text>
  
  <!-- 统计信息 -->
  <text x="600" y="450" text-anchor="middle" class="subtitle">统计信息</text>
  
  <rect x="520" y="465" width="160" height="80" rx="5" class="problem"/>
  <text x="600" y="480" text-anchor="middle" class="text">总行数: 83</text>
  <text x="600" y="495" text-anchor="middle" class="text">图片合成可处理: 0</text>
  <text x="600" y="510" text-anchor="middle" class="text">图生视频可处理: 0</text>
  <text x="600" y="525" text-anchor="middle" class="text">跳过率: 100%</text>
  <text x="600" y="540" text-anchor="middle" class="text">❌ 所有行都被跳过</text>
  
</svg>